<?xml version="1.0" encoding="UTF-8"?>
<svg width="85.492mm" height="40.031mm" version="1.1" viewBox="0 0 85.492 40.031" xmlns="http://www.w3.org/2000/svg" xmlns:xlink="http://www.w3.org/1999/xlink"><defs><linearGradient id="linearGradient41455" x1="-34.249" x2="-35.321" y1="198.23" y2="253.23" gradientUnits="userSpaceOnUse"><stop stop-color="#4b2ca9" offset="0"/><stop stop-color="#a700ff" offset=".47598"/><stop stop-color="#ff4790" stop-opacity=".98431" offset="1"/></linearGradient></defs><g transform="translate(-85.366 -57.201)"><g transform="matrix(.41534 0 0 .41534 99.591 -25.132)" fill="url(#linearGradient41455)" style="shape-inside:url(#rect17071);white-space:pre" aria-label="Share your dreams."><path d="m-23.649 227.35q-3.04 0-5.44-1.08t-3.8-3.24q-1.36-2.2-1.36-5.48v-0.84h3.32v0.84q0 3.48 2.04 5.2 2.04 1.68 5.24 1.68 3.28 0 5-1.48t1.72-3.72q0-1.56-0.8-2.48-0.76-0.92-2.16-1.48-1.4-0.6-3.28-1.04l-2.08-0.52q-2.44-0.64-4.32-1.56t-2.96-2.4q-1.04-1.52-1.04-3.88t1.16-4.08q1.2-1.72 3.32-2.64 2.16-0.92 4.96-0.92 2.84 0 5.08 1 2.28 0.96 3.56 2.88 1.32 1.88 1.32 4.76v1.68h-3.32v-1.68q0-2.04-0.88-3.28-0.84-1.24-2.36-1.84-1.48-0.6-3.4-0.6-2.76 0-4.44 1.24-1.68 1.2-1.68 3.44 0 1.48 0.72 2.4t2.04 1.52q1.32 0.56 3.16 1l2.08 0.52q2.44 0.52 4.36 1.44 1.96 0.88 3.12 2.44 1.16 1.52 1.16 4t-1.24 4.32-3.52 2.88q-2.24 1-5.28 1z"/><path d="m-8.3292 226.79v-28h3.16v11.56h0.56q0.4-0.88 1.2-1.64 0.84-0.8 2.12-1.32 1.32-0.52 3.32-0.52 2.2 0 3.92 0.96 1.76 0.92 2.8 2.72 1.04 1.76 1.04 4.4v11.84h-3.16v-11.6q0-2.92-1.48-4.24-1.44-1.32-3.92-1.32-2.84 0-4.64 1.84-1.76 1.84-1.76 5.48v9.84z"/><path d="m22.191 227.35q-2.04 0-3.72-0.72t-2.64-2.08-0.96-3.32q0-2 0.96-3.28 0.96-1.32 2.64-1.96 1.68-0.68 3.76-0.68h6.6v-1.44q0-2.08-1.24-3.28-1.2-1.2-3.6-1.2-2.36 0-3.68 1.16-1.32 1.12-1.8 3.04l-2.96-0.96q0.48-1.64 1.52-2.96 1.04-1.36 2.76-2.16 1.76-0.84 4.2-0.84 3.76 0 5.84 1.96 2.08 1.92 2.08 5.44v8.84q0 1.2 1.12 1.2h1.8v2.68h-2.76q-1.32 0-2.12-0.72-0.8-0.76-0.8-2v-0.2h-0.48q-0.44 0.76-1.2 1.6-0.72 0.8-2 1.32-1.28 0.56-3.32 0.56zm0.36-2.72q2.8 0 4.52-1.64 1.76-1.68 1.76-4.68v-0.44h-6.48q-1.88 0-3.12 0.84-1.2 0.8-1.2 2.44t1.24 2.56q1.28 0.92 3.28 0.92z"/><path d="m39.191 226.79v-19.56h3.08v2.4h0.56q0.52-1.28 1.6-1.88t2.84-0.6h2.32v2.88h-2.52q-2.12 0-3.44 1.2-1.28 1.16-1.28 3.64v11.92z"/><path d="m62.511 227.35q-2.96 0-5.2-1.24-2.24-1.28-3.48-3.56t-1.24-5.28v-0.48q0-3.04 1.24-5.32t3.44-3.52q2.2-1.28 5.04-1.28 2.76 0 4.88 1.2 2.12 1.16 3.32 3.36t1.2 5.16v1.44h-15.96q0.12 3.16 2.04 4.96 1.92 1.76 4.8 1.76 2.52 0 3.88-1.16t2.08-2.76l2.72 1.32q-0.6 1.24-1.68 2.48-1.04 1.24-2.76 2.08-1.68 0.84-4.32 0.84zm-6.72-12.12h12.72q-0.16-2.72-1.88-4.24-1.68-1.52-4.32-1.52-2.68 0-4.4 1.52t-2.12 4.24z"/><path d="m89.871 234.79v-2.8h11.2q1.16 0 1.16-1.2v-7.12h-0.56q-0.4 0.84-1.24 1.68-0.8 0.8-2.12 1.32-1.32 0.48-3.32 0.48-2.12 0-3.92-0.92-1.76-0.92-2.8-2.72-1-1.8-1-4.4v-11.88h3.16v11.64q0 2.88 1.44 4.2 1.48 1.32 3.96 1.32 2.8 0 4.6-1.84 1.8-1.84 1.8-5.48v-9.84h3.16v24.12q0 1.6-0.92 2.52-0.88 0.92-2.6 0.92z"/><path d="m121.03 227.35q-2.96 0-5.24-1.24-2.24-1.24-3.52-3.48-1.24-2.28-1.24-5.36v-0.52q0-3.04 1.24-5.32 1.28-2.28 3.52-3.52 2.28-1.24 5.24-1.24t5.2 1.24q2.28 1.24 3.52 3.52 1.28 2.28 1.28 5.32v0.52q0 3.08-1.28 5.36-1.24 2.24-3.52 3.48-2.24 1.24-5.2 1.24zm0-2.84q3.12 0 4.96-1.96 1.88-2 1.88-5.36v-0.36q0-3.36-1.88-5.32-1.84-2-4.96-2-3.08 0-4.96 2-1.88 1.96-1.88 5.32v0.36q0 3.36 1.88 5.36 1.88 1.96 4.96 1.96z"/><path d="m144.19 227.15q-2.12 0-3.92-0.92-1.76-0.92-2.8-2.72-1-1.84-1-4.44v-11.84h3.16v11.6q0 2.92 1.44 4.24 1.48 1.32 3.96 1.32 2.8 0 4.6-1.84t1.8-5.48v-9.84h3.16v19.56h-3.08v-3.32h-0.56q-0.64 1.4-2.2 2.56-1.56 1.12-4.56 1.12z"/><path d="m161.19 226.79v-19.56h3.08v2.4h0.56q0.52-1.28 1.6-1.88t2.84-0.6h2.32v2.88h-2.52q-2.12 0-3.44 1.2-1.28 1.16-1.28 3.64v11.92z"/><path d="m3.7908 265.35q-2.52 0-4.64-1.2-2.12-1.2-3.36-3.48t-1.24-5.4v-0.52q0-3.12 1.24-5.36 1.24-2.28 3.32-3.48 2.12-1.24 4.68-1.24 2.04 0 3.44 0.56 1.44 0.52 2.32 1.36 0.88 0.8 1.36 1.72h0.56v-11.52h3.16v28h-3.08v-3.24h-0.56q-0.8 1.48-2.48 2.64-1.68 1.16-4.72 1.16zm0.84-2.8q3.04 0 4.92-1.92 1.92-1.96 1.92-5.44v-0.36q0-3.48-1.92-5.4-1.88-1.96-4.92-1.96-3 0-4.96 1.96-1.92 1.92-1.92 5.4v0.36q0 3.48 1.92 5.44 1.96 1.92 4.96 1.92z"/><path d="m21.271 264.79v-19.56h3.08v2.4h0.56q0.52-1.28 1.6-1.88t2.84-0.6h2.32v2.88h-2.52q-2.12 0-3.44 1.2-1.28 1.16-1.28 3.64v11.92z"/><path d="m44.591 265.35q-2.96 0-5.2-1.24-2.24-1.28-3.48-3.56t-1.24-5.28v-0.48q0-3.04 1.24-5.32t3.44-3.52q2.2-1.28 5.04-1.28 2.76 0 4.88 1.2 2.12 1.16 3.32 3.36t1.2 5.16v1.44h-15.96q0.12 3.16 2.04 4.96 1.92 1.76 4.8 1.76 2.52 0 3.88-1.16t2.08-2.76l2.72 1.32q-0.6 1.24-1.68 2.48-1.04 1.24-2.76 2.08-1.68 0.84-4.32 0.84zm-6.72-12.12h12.72q-0.16-2.72-1.88-4.24-1.68-1.52-4.32-1.52-2.68 0-4.4 1.52t-2.12 4.24z"/><path d="m65.311 265.35q-2.04 0-3.72-0.72t-2.64-2.08-0.96-3.32q0-2 0.96-3.28 0.96-1.32 2.64-1.96 1.68-0.68 3.76-0.68h6.6v-1.44q0-2.08-1.24-3.28-1.2-1.2-3.6-1.2-2.36 0-3.68 1.16-1.32 1.12-1.8 3.04l-2.96-0.96q0.48-1.64 1.52-2.96 1.04-1.36 2.76-2.16 1.76-0.84 4.2-0.84 3.76 0 5.84 1.96 2.08 1.92 2.08 5.44v8.84q0 1.2 1.12 1.2h1.8v2.68h-2.76q-1.32 0-2.12-0.72-0.8-0.76-0.8-2v-0.2h-0.48q-0.44 0.76-1.2 1.6-0.72 0.8-2 1.32-1.28 0.56-3.32 0.56zm0.36-2.72q2.8 0 4.52-1.64 1.76-1.68 1.76-4.68v-0.44h-6.48q-1.88 0-3.12 0.84-1.2 0.8-1.2 2.44t1.24 2.56q1.28 0.92 3.28 0.92z"/><path d="m82.311 264.79v-19.56h3.08v2.44h0.56q0.56-1.04 1.84-1.92t3.6-0.88q2.28 0 3.68 1 1.44 1 2.08 2.44h0.56q0.68-1.44 2.04-2.44 1.4-1 3.88-1 1.96 0 3.44 0.8t2.32 2.32q0.88 1.48 0.88 3.56v13.24h-3.16v-12.96q0-1.96-1.16-3.08-1.12-1.16-3.16-1.16-2.16 0-3.56 1.4-1.36 1.4-1.36 4.04v11.76h-3.16v-12.96q0-1.96-1.16-3.08-1.12-1.16-3.16-1.16-2.16 0-3.56 1.4-1.36 1.4-1.36 4.04v11.76z"/><path d="m124.59 265.35q-3.64 0-6.16-1.68-2.48-1.68-3-5.32l3-0.68q0.32 1.92 1.2 3.04 0.88 1.08 2.16 1.56 1.32 0.44 2.8 0.44 2.2 0 3.48-0.88t1.28-2.36q0-1.52-1.24-2.12-1.2-0.64-3.32-1.04l-1.64-0.28q-1.88-0.32-3.44-1t-2.48-1.84-0.92-2.92q0-2.64 2.04-4.12t5.4-1.48q3.32 0 5.36 1.52 2.08 1.48 2.68 4.2l-2.96 0.76q-0.36-2.12-1.72-2.96-1.36-0.88-3.36-0.88t-3.16 0.76q-1.16 0.72-1.16 2.16 0 1.4 1.08 2.08 1.12 0.64 2.96 0.96l1.64 0.28q2.08 0.36 3.72 1 1.68 0.6 2.64 1.76 1 1.16 1 3.04 0 2.88-2.16 4.44-2.12 1.56-5.72 1.56z"/><path d="m139.51 265.35q-1.16 0-1.96-0.76-0.76-0.76-0.76-1.96t0.76-1.96q0.8-0.76 1.96-0.76 1.2 0 1.96 0.76t0.76 1.96-0.76 1.96-1.96 0.76z"/></g><g transform="matrix(.26458 0 0 .26458 21.235 49.435)" style="shape-inside:url(#rect24267);white-space:pre" aria-label="Tap the (+) to get started."><path d="m247.78 174.52v-15.893h-5.2267v-2.7733h13.493v2.7733h-5.3867v15.893z"/><path d="m264.53 174.52v-9.12q0-1.1733-0.85334-1.8933-0.82667-0.74667-2.1067-0.74667-1.1733 0-2.1333 0.48-0.93334 0.48-1.7067 1.4667l-1.7867-1.7867q1.2533-1.36 2.6933-2.0267 1.4667-0.66666 3.1467-0.66666 1.6 0 2.7733 0.53333 1.1733 0.53333 1.8133 1.5733 0.64 1.0133 0.64 2.48v9.7067zm-4.1867 0.26666q-1.36 0-2.4267-0.53333-1.0667-0.53333-1.7067-1.4667-0.61334-0.96-0.61334-2.24 0-1.12 0.4-1.9733 0.4-0.85333 1.1733-1.4133 0.8-0.56 1.9733-0.85334 1.2-0.29333 2.7467-0.29333h3.8933l-0.24 2.1867h-4q-0.8 0-1.44 0.16-0.61333 0.13333-1.0667 0.45333-0.42667 0.29334-0.64 0.72-0.21334 0.4-0.21334 0.96001 0 0.58666 0.29334 1.04 0.29333 0.42666 0.8 0.66666 0.50666 0.24 1.1733 0.24 0.96 0 1.8133-0.32 0.88-0.34666 1.5467-0.93333 0.69333-0.58667 1.0667-1.3067l0.64 1.7867q-0.56 0.93333-1.3867 1.6267-0.82667 0.69333-1.7867 1.0933t-2 0.4z"/><path d="m270.48 180.38v-19.867h2.7733v3.2l-0.42667-0.24q0.16-0.8 0.90667-1.52 0.74667-0.74667 1.8133-1.2 1.0933-0.48 2.24-0.48 1.8933 0 3.36 0.93333 1.4667 0.93334 2.32 2.56 0.85334 1.6267 0.85334 3.7333 0 2.08-0.85334 3.7333-0.82666 1.6267-2.2933 2.5867-1.4667 0.93334-3.3067 0.93334-1.2267 0-2.3733-0.48-1.1467-0.50667-1.9467-1.28-0.8-0.77334-0.98667-1.6l0.69334-0.37333v9.36zm6.9333-8.16q1.2267 0 2.1867-0.61333 0.96-0.61334 1.52-1.68 0.56-1.0667 0.56-2.4267 0-1.36-0.56-2.4-0.53333-1.0667-1.4933-1.68t-2.2133-0.61333q-1.2533 0-2.2133 0.61333-0.96 0.58667-1.52 1.6533-0.56 1.0667-0.56 2.4267 0 1.36 0.56 2.4267 0.56001 1.0667 1.52 1.68 0.96 0.61333 2.2133 0.61333z"/><path d="m296.5 174.52v-17.573h2.7467v17.573zm-2.9067-11.333v-2.6667h8.9067v2.6667z"/><path d="m305.01 174.52v-19.733h2.7467v8.6133l-0.48 0.32q0.26666-0.93333 1.04-1.7067 0.77333-0.8 1.84-1.28 1.0667-0.50666 2.1867-0.50666 1.6 0 2.6667 0.64 1.0667 0.61333 1.6 1.8933 0.53334 1.28 0.53334 3.2267v8.5334h-2.7467v-8.3467q0-1.2-0.32-1.9733-0.32-0.8-0.98667-1.1467-0.66667-0.37334-1.6533-0.32-0.8 0-1.4667 0.26666-0.66666 0.24-1.1733 0.69334-0.48 0.45333-0.77333 1.0667-0.26667 0.58667-0.26667 1.28v8.48h-1.36q-0.34667 0-0.69334 0-0.34666 0-0.69333 0z"/><path d="m327.41 174.78q-2.16 0-3.84-0.90666-1.6533-0.93334-2.6133-2.5333-0.93333-1.6-0.93333-3.68 0-1.6533 0.53333-3.0133 0.53334-1.36 1.4667-2.3467 0.96-1.0133 2.2667-1.5467 1.3333-0.56 2.88-0.56 1.36 0 2.5333 0.53333 1.1733 0.50667 2.0267 1.4133 0.88 0.90667 1.3333 2.16 0.48 1.2267 0.45333 2.6933l-0.0267 1.1733h-11.44l-0.61334-2.1867h9.68l-0.4 0.45334v-0.64q-0.08-0.88-0.58667-1.5733-0.50667-0.69333-1.28-1.0933-0.77334-0.4-1.68-0.4-1.44 0-2.4267 0.56-0.98666 0.53333-1.4933 1.6-0.50667 1.04-0.50667 2.5867 0 1.4667 0.61334 2.56 0.61333 1.0667 1.7333 1.6533 1.12 0.58666 2.5867 0.58666 1.04 0 1.92-0.34666 0.90667-0.34667 1.9467-1.2533l1.3867 1.9467q-0.64 0.64-1.5733 1.12-0.90667 0.48-1.9467 0.77334-1.0133 0.26666-2 0.26666z"/><path d="m349.78 179.48q-3.2533-2.0267-4.96-5.0667t-1.7067-6.7733q0-3.7067 1.7067-6.7467 1.7333-3.0667 4.9867-5.0933l1.4667 1.6533q-2.72 1.8933-4.16 4.5333-1.4133 2.6133-1.4133 5.6533 0 3.04 1.4133 5.68 1.44 2.6133 4.16 4.5067z"/><path d="m353.01 168.25v-2.4h13.36v2.4zm5.2533 5.1467v-12.88h2.8v12.88z"/><path d="m369.57 179.48-1.4667-1.6533q2.72-1.8933 4.1333-4.5067 1.44-2.64 1.44-5.68 0-3.04-1.44-5.6533-1.4133-2.64-4.1333-4.5333l1.4933-1.6533q3.2533 2.0267 4.96 5.0667 1.7067 3.04 1.7067 6.7733 0 3.7067-1.7333 6.7733-1.7067 3.04-4.96 5.0667z"/><path d="m388.45 174.52v-17.573h2.7467v17.573zm-2.9067-11.333v-2.6667h8.9067v2.6667z"/><path d="m403.12 174.78q-2.0533 0-3.68-0.93333-1.6-0.96-2.5333-2.5867-0.93334-1.6533-0.93334-3.76 0-2.1067 0.93334-3.7333 0.93333-1.6533 2.5333-2.5867 1.6267-0.96 3.68-0.96 2.0267 0 3.6267 0.96 1.6267 0.93333 2.56 2.5867 0.93334 1.6267 0.93334 3.7333 0 2.1067-0.93334 3.76-0.93333 1.6267-2.56 2.5867-1.6 0.93333-3.6267 0.93333zm0-2.5067q1.2533 0 2.24-0.61333 0.98667-0.64 1.5467-1.7067 0.56-1.0933 0.53334-2.4533 0.0267-1.3867-0.53334-2.4533-0.56-1.0933-1.5467-1.7067-0.98666-0.61333-2.24-0.61333-1.2533 0-2.2667 0.64-0.98667 0.61333-1.5467 1.7067-0.56 1.0667-0.53333 2.4267-0.0267 1.36 0.53333 2.4533 0.56 1.0667 1.5467 1.7067 1.0133 0.61333 2.2667 0.61333z"/><path d="m426.96 180.65q-1.4933 0-2.9867-0.48-1.4667-0.45334-2.3733-1.2l1.0133-2.1333q0.8 0.61333 1.9733 0.98667 1.2 0.37333 2.3733 0.37333 1.4667 0 2.4533-0.48 0.98667-0.48 1.4933-1.4133 0.50667-0.93334 0.50667-2.32v-2.6933l0.29333 0.18666q-0.13333 0.82667-0.88 1.6-0.72 0.74666-1.8133 1.2267-1.0933 0.48-2.24 0.48-2 0-3.5733-0.93333-1.5467-0.96-2.4533-2.5867-0.90667-1.6533-0.90667-3.76 0-2.1067 0.88-3.7333 0.90667-1.6533 2.4533-2.5867 1.5733-0.96 3.52-0.96 0.8 0 1.5467 0.21333 0.74667 0.18667 1.3867 0.56 0.64 0.34667 1.1467 0.77333 0.50666 0.42667 0.82666 0.90667t0.4 0.90667l-0.58666 0.21333v-3.28h2.7467v13.147q0 1.68-0.50667 2.96-0.48 1.3067-1.4133 2.1867-0.93333 0.90666-2.2667 1.36-1.3333 0.48-3.0133 0.48zm0.10666-8.4q1.3067 0 2.32-0.61334 1.0133-0.61333 1.5733-1.68t0.56-2.4533q0-1.3867-0.58666-2.4533-0.56001-1.0933-1.5733-1.7067-0.98667-0.61333-2.2933-0.61333-1.28 0-2.2933 0.64-0.98667 0.61333-1.5733 1.7067-0.56 1.0667-0.56 2.4267 0 1.36 0.56 2.4533 0.58667 1.0667 1.5733 1.68 1.0133 0.61334 2.2933 0.61334z"/><path d="m444.53 174.78q-2.16 0-3.84-0.90666-1.6533-0.93334-2.6133-2.5333-0.93333-1.6-0.93333-3.68 0-1.6533 0.53333-3.0133 0.53334-1.36 1.4667-2.3467 0.96-1.0133 2.2667-1.5467 1.3333-0.56 2.88-0.56 1.36 0 2.5333 0.53333 1.1733 0.50667 2.0267 1.4133 0.88 0.90667 1.3333 2.16 0.48 1.2267 0.45333 2.6933l-0.0267 1.1733h-11.44l-0.61334-2.1867h9.68l-0.4 0.45334v-0.64q-0.08-0.88-0.58667-1.5733-0.50667-0.69333-1.28-1.0933-0.77334-0.4-1.68-0.4-1.44 0-2.4267 0.56-0.98666 0.53333-1.4933 1.6-0.50667 1.04-0.50667 2.5867 0 1.4667 0.61334 2.56 0.61333 1.0667 1.7333 1.6533 1.12 0.58666 2.5867 0.58666 1.04 0 1.92-0.34666 0.90667-0.34667 1.9467-1.2533l1.3867 1.9467q-0.64 0.64-1.5733 1.12-0.90667 0.48-1.9467 0.77334-1.0133 0.26666-2 0.26666z"/><path d="m455.36 174.52v-17.573h2.7467v17.573zm-2.9067-11.333v-2.6667h8.9067v2.6667z"/><path d="m476 174.78q-1.76 0-3.1733-0.61333-1.4133-0.61333-2.3467-1.8133l1.8667-1.6q0.8 0.93334 1.7333 1.36 0.96 0.4 2.16 0.4 0.48 0 0.88-0.10666 0.42667-0.13334 0.72001-0.37334 0.32-0.24 0.48-0.56 0.16-0.34666 0.16-0.74666 0-0.69334-0.50667-1.12-0.26667-0.18666-0.85334-0.4-0.56-0.24-1.4667-0.48-1.5467-0.4-2.5333-0.90666-0.98667-0.50667-1.52-1.1467-0.4-0.50667-0.58667-1.0933-0.18667-0.61333-0.18667-1.3333 0-1.1733 0.66667-2.08 0.66667-0.90666 1.7867-1.4133 1.1467-0.53333 2.56-0.53333 0.98667 0 1.9467 0.26666 0.98667 0.26667 1.8133 0.77334 0.82667 0.50666 1.3867 1.2l-1.5733 1.7333q-0.50667-0.50666-1.12-0.88-0.58667-0.4-1.2-0.61333-0.61334-0.21333-1.12-0.21333-0.56 0-1.0133 0.10666-0.45333 0.10667-0.77333 0.32-0.29334 0.21334-0.45334 0.53334t-0.16 0.72q0.0267 0.34666 0.16 0.66666 0.16 0.29334 0.42667 0.50667 0.29333 0.21334 0.88 0.45334t1.4933 0.45333q1.3333 0.34667 2.1867 0.77333 0.88 0.4 1.3867 0.93334 0.53334 0.50667 0.74667 1.1733 0.21334 0.66667 0.21334 1.4933 0 1.2-0.69334 2.16-0.66667 0.93334-1.8133 1.4667-1.1467 0.53333-2.56 0.53333z"/><path d="m485.84 174.52v-17.573h2.7467v17.573zm-2.9067-11.333v-2.6667h8.9067v2.6667z"/><path d="m502.5 174.52v-9.12q0-1.1733-0.85333-1.8933-0.82667-0.74667-2.1067-0.74667-1.1733 0-2.1333 0.48-0.93333 0.48-1.7067 1.4667l-1.7867-1.7867q1.2533-1.36 2.6933-2.0267 1.4667-0.66666 3.1467-0.66666 1.6 0 2.7733 0.53333 1.1733 0.53333 1.8133 1.5733 0.64 1.0133 0.64 2.48v9.7067zm-4.1867 0.26666q-1.36 0-2.4267-0.53333t-1.7067-1.4667q-0.61333-0.96-0.61333-2.24 0-1.12 0.4-1.9733 0.4-0.85333 1.1733-1.4133 0.8-0.56 1.9733-0.85334 1.2-0.29333 2.7467-0.29333h3.8933l-0.24 2.1867h-4q-0.8 0-1.44 0.16-0.61333 0.13333-1.0667 0.45333-0.42666 0.29334-0.64 0.72-0.21333 0.4-0.21333 0.96001 0 0.58666 0.29333 1.04 0.29334 0.42666 0.8 0.66666 0.50667 0.24 1.1733 0.24 0.96 0 1.8133-0.32 0.88-0.34666 1.5467-0.93333 0.69334-0.58667 1.0667-1.3067l0.64 1.7867q-0.56 0.93333-1.3867 1.6267-0.82667 0.69333-1.7867 1.0933t-2 0.4z"/><path d="m508.45 174.52v-14h2.7733v4.4l-0.26667-1.0667q0.29333-1.0133 0.98667-1.84 0.72-0.82666 1.6267-1.3067 0.93333-0.48 1.92-0.48 0.45333 0 0.85333 0.08 0.42667 0.08 0.66667 0.18666l-0.72 2.9867q-0.32-0.13333-0.72-0.21333-0.37334-0.10667-0.74667-0.10667-0.72 0-1.3867 0.29334-0.64 0.26666-1.1467 0.77333-0.48 0.48-0.77333 1.1467-0.29333 0.64-0.29333 1.4133v7.7334z"/><path d="m521.46 174.52v-17.573h2.7467v17.573zm-2.9067-11.333v-2.6667h8.9067v2.6667z"/><path d="m536.37 174.78q-2.16 0-3.84-0.90666-1.6533-0.93334-2.6133-2.5333-0.93334-1.6-0.93334-3.68 0-1.6533 0.53334-3.0133 0.53333-1.36 1.4667-2.3467 0.96-1.0133 2.2667-1.5467 1.3333-0.56 2.88-0.56 1.36 0 2.5333 0.53333 1.1733 0.50667 2.0267 1.4133 0.88 0.90667 1.3333 2.16 0.48 1.2267 0.45333 2.6933l-0.0267 1.1733h-11.44l-0.61333-2.1867h9.68l-0.4 0.45334v-0.64q-0.08-0.88-0.58667-1.5733-0.50667-0.69333-1.28-1.0933-0.77334-0.4-1.68-0.4-1.44 0-2.4267 0.56-0.98667 0.53333-1.4933 1.6-0.50667 1.04-0.50667 2.5867 0 1.4667 0.61334 2.56 0.61333 1.0667 1.7333 1.6533 1.12 0.58666 2.5867 0.58666 1.04 0 1.92-0.34666 0.90666-0.34667 1.9467-1.2533l1.3867 1.9467q-0.64 0.64-1.5733 1.12-0.90667 0.48-1.9467 0.77334-1.0133 0.26666-2 0.26666z"/><path d="m551.3 174.78q-1.92 0-3.44-0.93333-1.4933-0.96-2.3733-2.5867-0.88-1.6533-0.88-3.76 0-2.1067 0.85333-3.7333 0.88-1.6533 2.3733-2.5867 1.4933-0.96 3.3867-0.96 1.04 0 2 0.34666 0.98667 0.32 1.76 0.90667 0.77333 0.56 1.2 1.2533 0.45333 0.66666 0.45333 1.36l-0.8 0.0533v-9.36h2.7467v19.733h-2.7467v-3.3333h0.53333q0 0.64-0.42666 1.28-0.42667 0.61334-1.1467 1.1467-0.69334 0.53333-1.6267 0.85333-0.90667 0.32-1.8667 0.32zm0.37333-2.3733q1.2533 0 2.2133-0.64t1.4933-1.7333q0.56-1.12 0.56-2.5333 0-1.4133-0.56-2.5067-0.53334-1.12-1.4933-1.76t-2.2133-0.64q-1.2533 0-2.2133 0.64t-1.52 1.76q-0.53334 1.0933-0.53334 2.5067 0 1.4133 0.53334 2.5333 0.56 1.0933 1.52 1.7333t2.2133 0.64z"/><path d="m563.49 174.81q-0.88 0-1.36-0.50667-0.48-0.53333-0.48-1.4933 0-0.88 0.50667-1.44 0.50666-0.56 1.3333-0.56 0.88 0 1.36 0.53333 0.48 0.50667 0.48 1.4667 0 0.88-0.50666 1.44-0.50667 0.56-1.3333 0.56z"/></g></g></svg>
