<?xml version="1.0" encoding="UTF-8"?>
<svg width="113.16mm" height="47.304mm" version="1.1" viewBox="0 0 113.16 47.304" xmlns="http://www.w3.org/2000/svg"><g transform="translate(-75.797 -49.858)"><g transform="matrix(.26458 0 0 .26458 82.267 57.393)" style="shape-inside:url(#rect36276);white-space:pre" aria-label="Find just what you want."><path d="m-24.452 16.321v-44.8h27.072v4.864h-21.696v15.04h19.968v4.864h-19.968v20.032z"/><path d="m10.3 16.321v-31.296h5.056v31.296zm2.56-36.16q-1.664 0-2.816-1.088-1.088-1.088-1.088-2.752 0-1.728 1.088-2.816 1.152-1.088 2.816-1.088t2.752 1.088 1.088 2.816q0 1.664-1.088 2.752t-2.752 1.088z"/><path d="m25.98 16.321v-31.296h4.928v5.312h0.896q1.024-2.24 3.456-4.032 2.496-1.856 7.296-1.856 3.52 0 6.272 1.472 2.816 1.472 4.48 4.352 1.664 2.88 1.664 7.104v18.944h-5.056v-18.56q0-4.672-2.368-6.784-2.304-2.112-6.272-2.112-4.544 0-7.424 2.944-2.816 2.944-2.816 8.768v15.744z"/><path d="m78.46 17.217q-4.032 0-7.424-1.92t-5.376-5.568q-1.984-3.648-1.984-8.64v-0.832q0-4.992 1.984-8.576 1.984-3.648 5.312-5.568 3.392-1.984 7.488-1.984 3.264 0 5.504 0.896 2.304 0.832 3.712 2.176 1.408 1.28 2.176 2.752h0.896v-18.432h5.056v44.8h-4.928v-5.184h-0.896q-1.28 2.368-3.968 4.224t-7.552 1.856zm1.344-4.48q4.864 0 7.872-3.072 3.072-3.136 3.072-8.704v-0.576q0-5.568-3.072-8.64-3.008-3.136-7.872-3.136-4.8 0-7.936 3.136-3.072 3.072-3.072 8.64v0.576q0 5.568 3.072 8.704 3.136 3.072 7.936 3.072z"/><path d="m116.73 29.121v-4.48h4.352q1.92 0 1.92-1.92v-37.696h5.056v38.592q0 2.56-1.472 4.032-1.408 1.472-4.096 1.472zm8.832-48.96q-1.664 0-2.816-1.088-1.088-1.088-1.088-2.752 0-1.728 1.088-2.816 1.152-1.088 2.816-1.088t2.752 1.088 1.088 2.816q0 1.664-1.088 2.752t-2.752 1.088z"/><path d="m150.65 16.897q-3.392 0-6.272-1.472-2.816-1.472-4.48-4.352-1.6-2.944-1.6-7.104v-18.944h5.056v18.56q0 4.672 2.304 6.784 2.368 2.112 6.336 2.112 4.48 0 7.36-2.944 2.88-2.944 2.88-8.768v-15.744h5.056v31.296h-4.928v-5.312h-0.896q-1.024 2.24-3.52 4.096-2.496 1.792-7.296 1.792z"/><path d="m190.46 17.217q-5.824 0-9.856-2.688-3.968-2.688-4.8-8.512l4.8-1.088q0.512 3.072 1.92 4.864 1.408 1.728 3.456 2.496 2.112 0.704 4.48 0.704 3.52 0 5.568-1.408t2.048-3.776q0-2.432-1.984-3.392-1.92-1.024-5.312-1.664l-2.624-0.448q-3.008-0.512-5.504-1.6-2.496-1.088-3.968-2.944-1.472-1.856-1.472-4.672 0-4.224 3.264-6.592t8.64-2.368q5.312 0 8.576 2.432 3.328 2.368 4.288 6.72l-4.736 1.216q-0.576-3.392-2.752-4.736-2.176-1.408-5.376-1.408t-5.056 1.216q-1.856 1.152-1.856 3.456 0 2.24 1.728 3.328 1.792 1.024 4.736 1.536l2.624 0.448q3.328 0.576 5.952 1.6 2.688 0.96 4.224 2.816 1.6 1.856 1.6 4.864 0 4.608-3.456 7.104-3.392 2.496-9.152 2.496z"/><path d="m222.37 16.321q-2.688 0-4.16-1.472-1.408-1.472-1.408-4.032v-21.376h-9.408v-4.416h9.408v-11.136h5.056v11.136h10.24v4.416h-10.24v20.608q0 1.92 1.856 1.92h6.976v4.352z"/><path d="m261.09 16.321-6.272-31.296h5.12l5.184 27.904h0.896l6.848-27.904h8.384l6.848 27.904h0.896l5.184-27.904h5.12l-6.272 31.296h-8.64l-6.912-27.904h-0.832l-6.912 27.904z"/><path d="m308 16.321v-44.8h5.056v18.496h0.896q0.64-1.408 1.92-2.624 1.344-1.28 3.392-2.112 2.112-0.832 5.312-0.832 3.52 0 6.272 1.536 2.816 1.472 4.48 4.352 1.664 2.816 1.664 7.04v18.944h-5.056v-18.56q0-4.672-2.368-6.784-2.304-2.112-6.272-2.112-4.544 0-7.424 2.944-2.816 2.944-2.816 8.768v15.744z"/><path d="m356.83 17.217q-3.264 0-5.952-1.152t-4.224-3.328-1.536-5.312q0-3.2 1.536-5.248 1.536-2.112 4.224-3.136 2.688-1.088 6.016-1.088h10.56v-2.304q0-3.328-1.984-5.248-1.92-1.92-5.76-1.92-3.776 0-5.888 1.856-2.112 1.792-2.88 4.864l-4.736-1.536q0.768-2.624 2.432-4.736 1.664-2.176 4.416-3.456 2.816-1.344 6.72-1.344 6.016 0 9.344 3.136 3.328 3.072 3.328 8.704v14.144q0 1.92 1.792 1.92h2.88v4.288h-4.416q-2.112 0-3.392-1.152-1.28-1.216-1.28-3.2v-0.32h-0.768q-0.704 1.216-1.92 2.56-1.152 1.28-3.2 2.112-2.048 0.896-5.312 0.896zm0.576-4.352q4.48 0 7.232-2.624 2.816-2.688 2.816-7.488v-0.704h-10.368q-3.008 0-4.992 1.344-1.92 1.28-1.92 3.904t1.984 4.096q2.048 1.472 5.248 1.472z"/><path d="m393.52 16.321q-2.688 0-4.16-1.472-1.408-1.472-1.408-4.032v-21.376h-9.408v-4.416h9.408v-11.136h5.056v11.136h10.24v4.416h-10.24v20.608q0 1.92 1.856 1.92h6.976v4.352z"/><path d="m44.455 109.12v-4.48h17.92q1.856 0 1.856-1.92v-11.392h-0.896q-0.64 1.344-1.984 2.688-1.28 1.28-3.392 2.112-2.112 0.768-5.312 0.768-3.392 0-6.272-1.472-2.816-1.472-4.48-4.352-1.6-2.88-1.6-7.04v-19.008h5.056v18.624q0 4.608 2.304 6.72 2.368 2.112 6.336 2.112 4.48 0 7.36-2.944t2.88-8.768v-15.744h5.056v38.592q0 2.56-1.472 4.032-1.408 1.472-4.16 1.472z"/><path d="m94.311 97.217q-4.736 0-8.384-1.984-3.584-1.984-5.632-5.568-1.984-3.648-1.984-8.576v-0.832q0-4.864 1.984-8.512 2.048-3.648 5.632-5.632 3.648-1.984 8.384-1.984t8.32 1.984q3.648 1.984 5.632 5.632 2.048 3.648 2.048 8.512v0.832q0 4.928-2.048 8.576-1.984 3.584-5.632 5.568-3.584 1.984-8.32 1.984zm0-4.544q4.992 0 7.936-3.136 3.008-3.2 3.008-8.576v-0.576q0-5.376-3.008-8.512-2.944-3.2-7.936-3.2-4.928 0-7.936 3.2-3.008 3.136-3.008 8.512v0.576q0 5.376 3.008 8.576 3.008 3.136 7.936 3.136z"/><path d="m131.37 96.897q-3.392 0-6.272-1.472-2.816-1.472-4.48-4.352-1.6-2.944-1.6-7.104v-18.944h5.056v18.56q0 4.672 2.304 6.784 2.368 2.112 6.336 2.112 4.48 0 7.36-2.944t2.88-8.768v-15.744h5.056v31.296h-4.928v-5.312h-0.896q-1.024 2.24-3.52 4.096-2.496 1.792-7.296 1.792z"/><path d="m179.37 96.321-6.272-31.296h5.12l5.184 27.904h0.896l6.848-27.904h8.384l6.848 27.904h0.896l5.184-27.904h5.12l-6.272 31.296h-8.64l-6.912-27.904h-0.832l-6.912 27.904z"/><path d="m235.33 97.217q-3.264 0-5.952-1.152t-4.224-3.328-1.536-5.312q0-3.2 1.536-5.248 1.536-2.112 4.224-3.136 2.688-1.088 6.016-1.088h10.56v-2.304q0-3.328-1.984-5.248-1.92-1.92-5.76-1.92-3.776 0-5.888 1.856-2.112 1.792-2.88 4.864l-4.736-1.536q0.768-2.624 2.432-4.736 1.664-2.176 4.416-3.456 2.816-1.344 6.72-1.344 6.016 0 9.344 3.136 3.328 3.072 3.328 8.704v14.144q0 1.92 1.792 1.92h2.88v4.288h-4.416q-2.112 0-3.392-1.152-1.28-1.216-1.28-3.2v-0.32h-0.768q-0.704 1.216-1.92 2.56-1.152 1.28-3.2 2.112-2.048 0.896-5.312 0.896zm0.576-4.352q4.48 0 7.232-2.624 2.816-2.688 2.816-7.488v-0.704h-10.368q-3.008 0-4.992 1.344-1.92 1.28-1.92 3.904t1.984 4.096q2.048 1.472 5.248 1.472z"/><path d="m262.53 96.321v-31.296h4.928v5.312h0.896q1.024-2.24 3.456-4.032 2.496-1.856 7.296-1.856 3.52 0 6.272 1.472 2.816 1.472 4.48 4.352t1.664 7.104v18.944h-5.056v-18.56q0-4.672-2.368-6.784-2.304-2.112-6.272-2.112-4.544 0-7.424 2.944-2.816 2.944-2.816 8.768v15.744z"/><path d="m312.39 96.321q-2.688 0-4.16-1.472-1.408-1.472-1.408-4.032v-21.376h-9.408v-4.416h9.408v-11.136h5.056v11.136h10.24v4.416h-10.24v20.608q0 1.92 1.856 1.92h6.976v4.352z"/><path d="m333.06 97.217q-1.856 0-3.136-1.216-1.216-1.216-1.216-3.136t1.216-3.136q1.28-1.216 3.136-1.216 1.92 0 3.136 1.216t1.216 3.136-1.216 3.136-3.136 1.216z"/></g><g transform="matrix(.26458 0 0 .26458 20.62 49.435)" style="shape-inside:url(#rect24267);white-space:pre" aria-label="Tap the (+) to add a product."><path d="m247.78 174.52v-15.893h-5.2267v-2.7733h13.493v2.7733h-5.3867v15.893z"/><path d="m264.53 174.52v-9.12q0-1.1733-0.85334-1.8933-0.82667-0.74667-2.1067-0.74667-1.1733 0-2.1333 0.48-0.93334 0.48-1.7067 1.4667l-1.7867-1.7867q1.2533-1.36 2.6933-2.0267 1.4667-0.66666 3.1467-0.66666 1.6 0 2.7733 0.53333 1.1733 0.53333 1.8133 1.5733 0.64 1.0133 0.64 2.48v9.7067zm-4.1867 0.26666q-1.36 0-2.4267-0.53333-1.0667-0.53333-1.7067-1.4667-0.61334-0.96-0.61334-2.24 0-1.12 0.4-1.9733 0.4-0.85333 1.1733-1.4133 0.8-0.56 1.9733-0.85334 1.2-0.29333 2.7467-0.29333h3.8933l-0.24 2.1867h-4q-0.8 0-1.44 0.16-0.61333 0.13333-1.0667 0.45333-0.42667 0.29334-0.64 0.72-0.21334 0.4-0.21334 0.96001 0 0.58666 0.29334 1.04 0.29333 0.42666 0.8 0.66666 0.50666 0.24 1.1733 0.24 0.96 0 1.8133-0.32 0.88-0.34666 1.5467-0.93333 0.69333-0.58667 1.0667-1.3067l0.64 1.7867q-0.56 0.93333-1.3867 1.6267-0.82667 0.69333-1.7867 1.0933t-2 0.4z"/><path d="m270.48 180.38v-19.867h2.7733v3.2l-0.42667-0.24q0.16-0.8 0.90667-1.52 0.74667-0.74667 1.8133-1.2 1.0933-0.48 2.24-0.48 1.8933 0 3.36 0.93333 1.4667 0.93334 2.32 2.56 0.85334 1.6267 0.85334 3.7333 0 2.08-0.85334 3.7333-0.82666 1.6267-2.2933 2.5867-1.4667 0.93334-3.3067 0.93334-1.2267 0-2.3733-0.48-1.1467-0.50667-1.9467-1.28-0.8-0.77334-0.98667-1.6l0.69334-0.37333v9.36zm6.9333-8.16q1.2267 0 2.1867-0.61333 0.96-0.61334 1.52-1.68 0.56-1.0667 0.56-2.4267 0-1.36-0.56-2.4-0.53333-1.0667-1.4933-1.68t-2.2133-0.61333q-1.2533 0-2.2133 0.61333-0.96 0.58667-1.52 1.6533-0.56 1.0667-0.56 2.4267 0 1.36 0.56 2.4267 0.56001 1.0667 1.52 1.68 0.96 0.61333 2.2133 0.61333z"/><path d="m296.5 174.52v-17.573h2.7467v17.573zm-2.9067-11.333v-2.6667h8.9067v2.6667z"/><path d="m305.01 174.52v-19.733h2.7467v8.6133l-0.48 0.32q0.26666-0.93333 1.04-1.7067 0.77333-0.8 1.84-1.28 1.0667-0.50666 2.1867-0.50666 1.6 0 2.6667 0.64 1.0667 0.61333 1.6 1.8933 0.53334 1.28 0.53334 3.2267v8.5334h-2.7467v-8.3467q0-1.2-0.32-1.9733-0.32-0.8-0.98667-1.1467-0.66667-0.37334-1.6533-0.32-0.8 0-1.4667 0.26666-0.66666 0.24-1.1733 0.69334-0.48 0.45333-0.77333 1.0667-0.26667 0.58667-0.26667 1.28v8.48h-1.36q-0.34667 0-0.69334 0-0.34666 0-0.69333 0z"/><path d="m327.41 174.78q-2.16 0-3.84-0.90666-1.6533-0.93334-2.6133-2.5333-0.93333-1.6-0.93333-3.68 0-1.6533 0.53333-3.0133 0.53334-1.36 1.4667-2.3467 0.96-1.0133 2.2667-1.5467 1.3333-0.56 2.88-0.56 1.36 0 2.5333 0.53333 1.1733 0.50667 2.0267 1.4133 0.88 0.90667 1.3333 2.16 0.48 1.2267 0.45333 2.6933l-0.0267 1.1733h-11.44l-0.61334-2.1867h9.68l-0.4 0.45334v-0.64q-0.08-0.88-0.58667-1.5733-0.50667-0.69333-1.28-1.0933-0.77334-0.4-1.68-0.4-1.44 0-2.4267 0.56-0.98666 0.53333-1.4933 1.6-0.50667 1.04-0.50667 2.5867 0 1.4667 0.61334 2.56 0.61333 1.0667 1.7333 1.6533 1.12 0.58666 2.5867 0.58666 1.04 0 1.92-0.34666 0.90667-0.34667 1.9467-1.2533l1.3867 1.9467q-0.64 0.64-1.5733 1.12-0.90667 0.48-1.9467 0.77334-1.0133 0.26666-2 0.26666z"/><path d="m349.78 179.48q-3.2533-2.0267-4.96-5.0667t-1.7067-6.7733q0-3.7067 1.7067-6.7467 1.7333-3.0667 4.9867-5.0933l1.4667 1.6533q-2.72 1.8933-4.16 4.5333-1.4133 2.6133-1.4133 5.6533 0 3.04 1.4133 5.68 1.44 2.6133 4.16 4.5067z"/><path d="m353.01 168.25v-2.4h13.36v2.4zm5.2533 5.1467v-12.88h2.8v12.88z"/><path d="m369.57 179.48-1.4667-1.6533q2.72-1.8933 4.1333-4.5067 1.44-2.64 1.44-5.68 0-3.04-1.44-5.6533-1.4133-2.64-4.1333-4.5333l1.4933-1.6533q3.2533 2.0267 4.96 5.0667 1.7067 3.04 1.7067 6.7733 0 3.7067-1.7333 6.7733-1.7067 3.04-4.96 5.0667z"/><path d="m388.45 174.52v-17.573h2.7467v17.573zm-2.9067-11.333v-2.6667h8.9067v2.6667z"/><path d="m403.12 174.78q-2.0533 0-3.68-0.93333-1.6-0.96-2.5333-2.5867-0.93334-1.6533-0.93334-3.76 0-2.1067 0.93334-3.7333 0.93333-1.6533 2.5333-2.5867 1.6267-0.96 3.68-0.96 2.0267 0 3.6267 0.96 1.6267 0.93333 2.56 2.5867 0.93334 1.6267 0.93334 3.7333 0 2.1067-0.93334 3.76-0.93333 1.6267-2.56 2.5867-1.6 0.93333-3.6267 0.93333zm0-2.5067q1.2533 0 2.24-0.61333 0.98667-0.64 1.5467-1.7067 0.56-1.0933 0.53334-2.4533 0.0267-1.3867-0.53334-2.4533-0.56-1.0933-1.5467-1.7067-0.98666-0.61333-2.24-0.61333-1.2533 0-2.2667 0.64-0.98667 0.61333-1.5467 1.7067-0.56 1.0667-0.53333 2.4267-0.0267 1.36 0.53333 2.4533 0.56 1.0667 1.5467 1.7067 1.0133 0.61333 2.2667 0.61333z"/><path d="m428.98 174.52v-9.12q0-1.1733-0.85334-1.8933-0.82667-0.74667-2.1067-0.74667-1.1733 0-2.1333 0.48-0.93334 0.48-1.7067 1.4667l-1.7867-1.7867q1.2533-1.36 2.6933-2.0267 1.4667-0.66666 3.1467-0.66666 1.6 0 2.7733 0.53333 1.1733 0.53333 1.8133 1.5733 0.64 1.0133 0.64 2.48v9.7067zm-4.1867 0.26666q-1.36 0-2.4267-0.53333-1.0667-0.53333-1.7067-1.4667-0.61334-0.96-0.61334-2.24 0-1.12 0.4-1.9733 0.4-0.85333 1.1733-1.4133 0.8-0.56 1.9733-0.85334 1.2-0.29333 2.7467-0.29333h3.8933l-0.24 2.1867h-4q-0.8 0-1.44 0.16-0.61333 0.13333-1.0667 0.45333-0.42667 0.29334-0.64 0.72-0.21334 0.4-0.21334 0.96001 0 0.58666 0.29334 1.04 0.29333 0.42666 0.8 0.66666 0.50666 0.24 1.1733 0.24 0.96 0 1.8133-0.32 0.88-0.34666 1.5467-0.93333 0.69333-0.58667 1.0667-1.3067l0.64 1.7867q-0.56 0.93333-1.3867 1.6267-0.82667 0.69333-1.7867 1.0933t-2 0.4z"/><path d="m440.77 174.78q-1.92 0-3.44-0.93333-1.4933-0.96-2.3733-2.5867-0.88-1.6533-0.88-3.76 0-2.1067 0.85334-3.7333 0.88-1.6533 2.3733-2.5867 1.4933-0.96 3.3867-0.96 1.04 0 2 0.34666 0.98667 0.32 1.76 0.90667 0.77333 0.56 1.2 1.2533 0.45334 0.66666 0.45334 1.36l-0.80001 0.0533v-9.36h2.7467v19.733h-2.7467v-3.3333h0.53334q0 0.64-0.42667 1.28-0.42667 0.61334-1.1467 1.1467-0.69333 0.53333-1.6267 0.85333-0.90666 0.32-1.8667 0.32zm0.37334-2.3733q1.2533 0 2.2133-0.64 0.96001-0.64 1.4933-1.7333 0.56-1.12 0.56-2.5333 0-1.4133-0.56-2.5067-0.53333-1.12-1.4933-1.76-0.96-0.64-2.2133-0.64-1.2533 0-2.2133 0.64t-1.52 1.76q-0.53333 1.0933-0.53333 2.5067 0 1.4133 0.53333 2.5333 0.56 1.0933 1.52 1.7333t2.2133 0.64z"/><path d="m457.68 174.78q-1.92 0-3.44-0.93333-1.4933-0.96-2.3733-2.5867-0.88-1.6533-0.88-3.76 0-2.1067 0.85333-3.7333 0.88-1.6533 2.3733-2.5867 1.4933-0.96 3.3867-0.96 1.04 0 2 0.34666 0.98667 0.32 1.76 0.90667 0.77334 0.56 1.2 1.2533 0.45334 0.66666 0.45334 1.36l-0.8 0.0533v-9.36h2.7467v19.733h-2.7467v-3.3333h0.53333q0 0.64-0.42667 1.28-0.42666 0.61334-1.1467 1.1467-0.69333 0.53333-1.6267 0.85333-0.90667 0.32-1.8667 0.32zm0.37333-2.3733q1.2533 0 2.2133-0.64t1.4933-1.7333q0.56-1.12 0.56-2.5333 0-1.4133-0.56-2.5067-0.53333-1.12-1.4933-1.76t-2.2133-0.64q-1.2533 0-2.2133 0.64-0.96 0.64-1.52 1.76-0.53333 1.0933-0.53333 2.5067 0 1.4133 0.53333 2.5333 0.56 1.0933 1.52 1.7333 0.96001 0.64 2.2133 0.64z"/><path d="m484.5 174.52v-9.12q0-1.1733-0.85333-1.8933-0.82667-0.74667-2.1067-0.74667-1.1733 0-2.1333 0.48-0.93333 0.48-1.7067 1.4667l-1.7867-1.7867q1.2533-1.36 2.6933-2.0267 1.4667-0.66666 3.1467-0.66666 1.6 0 2.7733 0.53333 1.1733 0.53333 1.8133 1.5733 0.64 1.0133 0.64 2.48v9.7067zm-4.1867 0.26666q-1.36 0-2.4267-0.53333t-1.7067-1.4667q-0.61333-0.96-0.61333-2.24 0-1.12 0.4-1.9733 0.4-0.85333 1.1733-1.4133 0.8-0.56 1.9733-0.85334 1.2-0.29333 2.7467-0.29333h3.8933l-0.24 2.1867h-4q-0.8 0-1.44 0.16-0.61334 0.13333-1.0667 0.45333-0.42667 0.29334-0.64 0.72-0.21333 0.4-0.21333 0.96001 0 0.58666 0.29333 1.04 0.29333 0.42666 0.8 0.66666t1.1733 0.24q0.96001 0 1.8133-0.32 0.88-0.34666 1.5467-0.93333 0.69333-0.58667 1.0667-1.3067l0.64 1.7867q-0.56 0.93333-1.3867 1.6267-0.82667 0.69333-1.7867 1.0933t-2 0.4z"/><path d="m497.92 180.38v-19.867h2.7733v3.2l-0.42667-0.24q0.16-0.8 0.90667-1.52 0.74667-0.74667 1.8133-1.2 1.0933-0.48 2.24-0.48 1.8933 0 3.36 0.93333 1.4667 0.93334 2.32 2.56 0.85333 1.6267 0.85333 3.7333 0 2.08-0.85333 3.7333-0.82667 1.6267-2.2933 2.5867-1.4667 0.93334-3.3067 0.93334-1.2267 0-2.3733-0.48-1.1467-0.50667-1.9467-1.28-0.80001-0.77334-0.98667-1.6l0.69333-0.37333v9.36zm6.9333-8.16q1.2267 0 2.1867-0.61333 0.96-0.61334 1.52-1.68 0.56-1.0667 0.56-2.4267 0-1.36-0.56-2.4-0.53334-1.0667-1.4933-1.68t-2.2133-0.61333q-1.2533 0-2.2133 0.61333-0.96 0.58667-1.52 1.6533-0.56 1.0667-0.56 2.4267 0 1.36 0.56 2.4267 0.56 1.0667 1.52 1.68 0.96 0.61333 2.2133 0.61333z"/><path d="m514.74 174.52v-14h2.7733v4.4l-0.26666-1.0667q0.29333-1.0133 0.98666-1.84 0.72-0.82666 1.6267-1.3067 0.93334-0.48 1.92-0.48 0.45334 0 0.85334 0.08 0.42667 0.08 0.66667 0.18666l-0.72 2.9867q-0.32001-0.13333-0.72001-0.21333-0.37333-0.10667-0.74666-0.10667-0.72 0-1.3867 0.29334-0.64 0.26666-1.1467 0.77333-0.48 0.48-0.77333 1.1467-0.29334 0.64-0.29334 1.4133v7.7334z"/><path d="m531.2 174.78q-2.0533 0-3.68-0.93333-1.6-0.96-2.5333-2.5867-0.93334-1.6533-0.93334-3.76 0-2.1067 0.93334-3.7333 0.93333-1.6533 2.5333-2.5867 1.6267-0.96 3.68-0.96 2.0267 0 3.6267 0.96 1.6267 0.93333 2.56 2.5867 0.93334 1.6267 0.93334 3.7333 0 2.1067-0.93334 3.76-0.93333 1.6267-2.56 2.5867-1.6 0.93333-3.6267 0.93333zm0-2.5067q1.2533 0 2.24-0.61333 0.98667-0.64 1.5467-1.7067 0.56-1.0933 0.53334-2.4533 0.0267-1.3867-0.53334-2.4533-0.56-1.0933-1.5467-1.7067t-2.24-0.61333q-1.2533 0-2.2667 0.64-0.98667 0.61333-1.5467 1.7067-0.56 1.0667-0.53333 2.4267-0.0267 1.36 0.53333 2.4533 0.56 1.0667 1.5467 1.7067 1.0133 0.61333 2.2667 0.61333z"/><path d="m547.14 174.78q-1.92 0-3.44-0.93333-1.4933-0.96-2.3733-2.5867-0.88-1.6533-0.88-3.76 0-2.1067 0.85333-3.7333 0.88-1.6533 2.3733-2.5867 1.4933-0.96 3.3867-0.96 1.04 0 2 0.34666 0.98667 0.32 1.76 0.90667 0.77334 0.56 1.2 1.2533 0.45333 0.66666 0.45333 1.36l-0.8 0.0533v-9.36h2.7467v19.733h-2.7467v-3.3333h0.53333q0 0.64-0.42666 1.28-0.42667 0.61334-1.1467 1.1467-0.69334 0.53333-1.6267 0.85333-0.90667 0.32-1.8667 0.32zm0.37333-2.3733q1.2533 0 2.2133-0.64t1.4933-1.7333q0.56001-1.12 0.56001-2.5333 0-1.4133-0.56001-2.5067-0.53333-1.12-1.4933-1.76t-2.2133-0.64q-1.2533 0-2.2133 0.64t-1.52 1.76q-0.53334 1.0933-0.53334 2.5067 0 1.4133 0.53334 2.5333 0.56 1.0933 1.52 1.7333t2.2133 0.64z"/><path d="m563.54 174.78q-1.4933 0-2.6133-0.69333-1.0933-0.69333-1.7067-1.9467-0.58666-1.2533-0.58666-2.9867v-8.64h2.7467v7.8933q0 1.84 0.85333 2.9067 0.88 1.0667 2.4267 1.0667 0.77333 0 1.4133-0.24 0.64001-0.26667 1.0933-0.72 0.48-0.45333 0.74667-1.0933 0.26666-0.64001 0.26666-1.3867v-8.4267h2.7467v14h-2.7467v-2.9333l0.48-0.32q-0.32 0.98667-1.0933 1.7867-0.74667 0.8-1.7867 1.28-1.04 0.45333-2.24 0.45333z"/><path d="m580.72 174.78q-1.9467 0-3.4933-0.96-1.52-0.96-2.4267-2.6133-0.88-1.6533-0.88-3.7067 0-2.0533 0.88-3.7067 0.90667-1.6533 2.4267-2.6133 1.5467-0.96 3.4933-0.96 1.8667 0 3.3867 0.77333 1.5467 0.74667 2.3467 2.0533l-1.52 1.8667q-0.42667-0.61334-1.0933-1.12-0.66666-0.50666-1.4133-0.8-0.74667-0.29333-1.44-0.29333-1.28 0-2.2933 0.64-0.98667 0.61333-1.5733 1.7067-0.58667 1.0933-0.58667 2.4533 0 1.36 0.61333 2.4533 0.61334 1.0667 1.6267 1.7067 1.0133 0.64 2.24 0.64 0.72001 0 1.3867-0.24 0.69334-0.24 1.3333-0.72t1.2-1.1733l1.52 1.8667q-0.85333 1.2-2.4533 1.9733-1.5733 0.77333-3.28 0.77333z"/><path d="m590.77 174.52v-17.573h2.7467v17.573zm-2.9067-11.333v-2.6667h8.9067v2.6667z"/><path d="m600.4 174.81q-0.88 0-1.36-0.50667-0.48-0.53333-0.48-1.4933 0-0.88 0.50667-1.44 0.50666-0.56 1.3333-0.56 0.88 0 1.36 0.53333 0.48 0.50667 0.48 1.4667 0 0.88-0.50666 1.44-0.50667 0.56-1.3333 0.56z"/></g></g></svg>
