<?xml version="1.0" encoding="UTF-8"?>
<svg width="70.123mm" height="70.758mm" version="1.1" viewBox="0 0 70.123 70.758" xmlns="http://www.w3.org/2000/svg">
 <g transform="translate(-225.32 -176.32)">
  <path d="m242.65 217.11c-8.367 2.832-13.865 6.591-13.865 6.591s14.146 9.6751 31.597 9.6751 31.596-9.6751 31.596-9.6751-5.4976-3.759-13.865-6.591m-17.731-32.512c4.3765-4.6743 8.3158-7.3658 8.3158-7.3658s13.752 16.012 11.485 33.232c-2.2671 17.22-19.695 14.564-19.695 14.564m11.485-18.668c2.267 17.22-11.485 18.668-11.485 18.668s-17.428 2.6564-19.695-14.564c-2.267-17.22 11.485-33.232 11.485-33.232s17.428 11.907 19.695 29.127z" fill="none" stroke="#000" stroke-width="1.3758" style="paint-order:markers stroke fill"/>
  <g stroke-width=".1932">
   <path d="m228.42 246.94-3.102-9.7374h1.5997l1.8779 6.0928q0.11129 0.30603 0.19475 0.72334 0.0835 0.41732 0.15302 0.80681 0.0835 0.37559 0.12519 0.59816l-0.4034-0.0139q0.20865-0.73726 0.31994-1.1407 0.12519-0.4034 0.19474-0.61206 0.0696-0.22257 0.1252-0.37558l1.7527-4.3957h1.3493l1.6971 4.3957q0.13911 0.33385 0.23648 0.6677 0.11129 0.31994 0.19475 0.6538 0.0835 0.31994 0.18084 0.68161l-0.36168 0.0974q0.0696-0.37558 0.0974-0.58424 0.0417-0.22256 0.0695-0.36167t0.0556-0.2643q0.0278-0.1391 0.0835-0.34776 0.0696-0.20866 0.18084-0.57033l1.8501-6.0511h1.6136l-3.102 9.7374h-1.0433l-2.5734-6.0928 0.1252 0.0556-2.4761 6.0372z" style="white-space:pre"/>
   <path d="m239.84 246.94v-1.391h1.5719v-6.9552h-1.5719v-1.391h4.6461v1.391h-1.5719v6.9552h1.5719v1.391z" style="white-space:pre"/>
   <path d="m249.85 247.08q-1.1963 0-2.1144-0.47296-0.90418-0.47296-1.558-1.4189l1.0294-1.1824q0.68162 0.97374 1.3076 1.3493 0.62597 0.37559 1.4884 0.37559 0.5286 0 0.95982-0.16693 0.43123-0.16693 0.68162-0.45905 0.25038-0.29212 0.25038-0.6677 0-0.25039-0.0835-0.47296t-0.2643-0.4034q-0.16692-0.18084-0.44513-0.33385-0.2643-0.15302-0.62598-0.2643-0.36167-0.1252-0.83463-0.20866-0.75116-0.15302-1.3076-0.40341-0.55642-0.25039-0.932-0.62597t-0.55642-0.84854q-0.18084-0.48687-0.18084-1.085 0-0.7929 0.44514-1.405t1.1963-0.95983q0.76508-0.36167 1.711-0.36167 1.1268 0 1.9614 0.44514 0.84854 0.43122 1.3354 1.2658l-1.0572 1.0433q-0.41732-0.68161-1.0016-1.0433-0.57033-0.36167-1.2798-0.36167-0.54251 0-0.94591 0.16693-0.4034 0.16692-0.63988 0.47295-0.22257 0.29212-0.22257 0.69553 0 0.29212 0.11128 0.54251 0.11129 0.23648 0.33386 0.43122 0.23647 0.18084 0.62597 0.33386 0.38949 0.1391 0.932 0.25039 0.76508 0.16692 1.3632 0.43122 0.59815 0.25039 1.0155 0.59815 0.41731 0.34777 0.62597 0.77899 0.22257 0.43123 0.22257 0.93201 0 0.932-0.43123 1.6136-0.43122 0.68162-1.2241 1.0572-0.7929 0.36168-1.8918 0.36168z" style="white-space:pre"/>
   <path d="m261.89 246.94v-9.7374h1.5023v9.7374zm-6.3571 0v-9.7374h1.5023v9.7374zm0.65379-4.1314v-1.4467h6.371v1.4467z" style="white-space:pre"/>
   <path d="m266.12 246.94v-9.7374h1.5023v8.2907h4.5626v1.4467z" style="white-space:pre"/>
   <path d="m274.09 246.94v-1.391h1.5719v-6.9552h-1.5719v-1.391h4.6461v1.391h-1.5719v6.9552h1.5719v1.391z" style="white-space:pre"/>
   <path d="m281.1 246.94v-9.7374h1.5023v8.2907h4.5626v1.4467z" style="white-space:pre"/>
   <path d="m290.38 246.94v-4.8548l0.0974 0.68162-3.9367-5.5642h1.8084l3.0047 4.3122-0.34777-0.0417 2.7126-4.2705h1.7249l-3.7698 5.7172 0.20866-0.94591v4.966z" style="white-space:pre"/>
  </g>
 </g>
</svg>
