<?xml version="1.0" encoding="UTF-8"?>
<svg width="127.36mm" height="52.659mm" version="1.1" viewBox="0 0 127.36 52.659" xmlns="http://www.w3.org/2000/svg"><g transform="translate(-497.6 -280.74)"><g transform="translate(645.87 -24.212)"><g transform="matrix(.54618 0 0 .54618 -279.97 164.45)"><text transform="matrix(.32661 0 0 .32661 311.16 241.56)" fill="#acfc29" font-family="sans-serif" font-size="40px" style="line-height:1.25;shape-inside:url(#rect186-3-2-5);white-space:pre" xml:space="preserve"/><text transform="matrix(.26458 0 0 .26458 301.39 244.87)" fill="#acfc29" font-family="sans-serif" font-size="40px" style="line-height:1.25;shape-inside:url(#rect292-3-5-2);white-space:pre" xml:space="preserve"/><rect x="373.12" y="257.61" width="16.507" height="9.7122" ry="4.8561" fill="none" stroke="#acfc29" stroke-linecap="round" stroke-width=".75"/></g><g fill="#ffefef" stroke-width=".48495"><path d="m-126.46 328.31v-13.579h5.4896q1.2609 0 2.2114 0.44615 0.96989 0.42676 1.513 1.2415 0.54314 0.79531 0.54314 1.9204v0.21337q0 1.3384-0.64013 2.1144-0.64013 0.77591-1.513 1.0475v0.27157q0.69832 0.0194 1.1445 0.46555 0.46555 0.42676 0.46555 1.2997v4.5585h-1.61v-4.3645q0-0.58194-0.32977-0.8923-0.31036-0.31037-0.95049-0.31037h-4.6943v5.5672zm1.6294-7.0414h3.705q1.3384 0 2.0562-0.64013 0.73712-0.65952 0.73712-1.8234v-0.13578q0-1.1639-0.71772-1.804-0.71772-0.65953-2.0756-0.65953h-3.705z" style="white-space:pre"/><path d="m-109.81 328.59q-1.4354 0-2.5217-0.60133-1.0863-0.62074-1.6876-1.7264-0.60134-1.1057-0.60134-2.5605v-0.23278q0-1.4742 0.60134-2.5799 0.60133-1.1057 1.6682-1.707 1.0669-0.62073 2.4441-0.62073 1.3384 0 2.3665 0.58194 1.0281 0.56254 1.61 1.6294t0.58194 2.5023v0.69833h-7.7398q0.0582 1.5324 0.98929 2.4053 0.93109 0.85351 2.3277 0.85351 1.2221 0 1.8816-0.56254 0.65953-0.56254 1.0087-1.3384l1.3191 0.64013q-0.29097 0.60133-0.81471 1.2027-0.50435 0.60133-1.3384 1.0087-0.81472 0.40735-2.095 0.40735zm-3.2588-5.8776h6.1685q-0.0776-1.3191-0.9117-2.0562-0.81471-0.73712-2.095-0.73712-1.2997 0-2.1338 0.73712t-1.0281 2.0562z" style="white-space:pre"/><path d="m-97.418 318.56c-0.98282 0-1.7518 0.18773-2.3079 0.56275-0.54313 0.37503-0.93768 0.80155-1.1834 1.28h-0.27181v-1.571h-1.4934v14.233h1.5322v-6.2415h0.27182c0.15519 0.28451 0.37489 0.5625 0.65939 0.83406 0.2845 0.27158 0.65326 0.49128 1.1059 0.65939 0.46555 0.18105 1.0277 0.27182 1.6872 0.27182 0.82764 0 1.578-0.19392 2.2505-0.58188 0.68539-0.38794 1.2285-0.95063 1.6294-1.6878 0.40089-0.73712 0.60151-1.6098 0.60151-2.6184v-0.25218c0-1.0216-0.20733-1.8948-0.62115-2.619-0.40088-0.72419-0.94396-1.2802-1.6294-1.6681-0.67246-0.40089-1.4162-0.60151-2.2309-0.60151zm-0.40721 1.358c0.98282 0 1.7781 0.31667 2.3859 0.95033 0.62073 0.62074 0.93121 1.4939 0.93121 2.619v0.17467c0 1.1251-0.31048 2.0044-0.93121 2.6381-0.6078 0.62074-1.4031 0.93069-2.3859 0.93069-0.96989 0-1.7714-0.30995-2.405-0.93069-0.62072-0.63366-0.93121-1.513-0.93121-2.6381v-0.17467c0-1.1251 0.31049-1.9982 0.93121-2.619 0.63367-0.63366 1.4351-0.95033 2.405-0.95033zm-4.8493 15.623v5.7418c0 0.84057 0.16143 1.5585 0.48472 2.1534 0.33623 0.58194 0.78905 1.0214 1.3581 1.3188 0.58193 0.29743 1.2158 0.44648 1.9012 0.44648 0.96989 0 1.7069-0.18102 2.2112-0.54312 0.50435-0.37501 0.85969-0.78917 1.0666-1.2418h0.27182v1.6102h1.4934v-9.4857h-1.5322v4.7718c0 1.1768-0.29088 2.0629-0.87282 2.6577-0.58194 0.59488-1.3256 0.89245-2.2309 0.89245-0.80178 0-1.4418-0.21351-1.9203-0.64027-0.46555-0.42675-0.69867-1.1122-0.69867-2.0562v-5.6255z" style="white-space:pre"/></g><path d="m-86.38 318.56c-0.78885 0-1.4676 0.13615-2.0366 0.40772-0.55607 0.25864-1.0022 0.6078-1.3384 1.0475-0.33623 0.42676-0.58224 0.90485-0.73742 1.4351l1.4356 0.4656c0.15518-0.62072 0.44606-1.1122 0.87282-1.4743 0.42675-0.37503 1.0219-0.56224 1.7849-0.56224 0.77591 0 1.3577 0.19392 1.7456 0.58187 0.40089 0.38796 0.60151 0.91814 0.60151 1.5906v0.69815h-3.2008c-0.67246 0-1.2805 0.10985-1.8237 0.3297-0.54314 0.2069-0.96966 0.52409-1.28 0.95084-0.31036 0.41382-0.4656 0.944-0.4656 1.5906 0 0.63366 0.15524 1.17 0.4656 1.6097 0.31037 0.43969 0.73689 0.77596 1.28 1.0087s1.1445 0.34933 1.804 0.34933 1.1964-0.0908 1.6102-0.27182c0.41382-0.16811 0.73719-0.38111 0.96997-0.63975 0.24571-0.27157 0.43963-0.53047 0.58188-0.77618h0.23254v0.0971c0 0.40089 0.12945 0.72426 0.38809 0.96997 0.25864 0.23277 0.60161 0.34881 1.0284 0.34881h1.3384v-1.2997h-0.87333c-0.36209 0-0.54312-0.19392-0.54312-0.58188v-4.2866c0-1.138-0.33626-2.0173-1.0087-2.6381-0.67246-0.63366-1.6163-0.95084-2.8319-0.95084zm-0.81442 5.4317h3.1424v0.21342c0 0.96989-0.28469 1.726-0.8537 2.2691-0.55607 0.53021-1.2869 0.7953-2.1921 0.7953-0.64659 0-1.1768-0.14853-1.5906-0.44597-0.40089-0.29743-0.60151-0.71106-0.60151-1.2413 0-0.53021 0.19444-0.92475 0.58239-1.1834 0.40089-0.27157 0.90529-0.40721 1.5131-0.40721zm6.0715 12.907v-8.5809h-1.357v7.2032l-4.2881-0.0191c-0.569 0-1.028 0.097-1.3772 0.29094-0.34916 0.19398-0.60755 0.49776-0.77566 0.91158h-0.27182v-1.1638h-1.4934v9.4857h1.5322v-5.7805c0-0.80177 0.20681-1.3902 0.62063-1.7653 0.42675-0.38796 0.98324-0.58188 1.6686-0.58188z" fill="#acfc29" stroke-width=".48495" style="white-space:pre"/><g fill="#ffefef" stroke-width=".48495"><path d="m-78.253 315.01c-0.33623 0-0.62092 0.10985-0.8537 0.3297-0.21984 0.21984-0.3297 0.50453-0.3297 0.85369 0 0.33624 0.10986 0.61422 0.3297 0.83406 0.23278 0.21984 0.51746 0.3297 0.8537 0.3297 0.33623 0 0.61422-0.10986 0.83406-0.3297 0.21984-0.21984 0.3297-0.49782 0.3297-0.83406 0-0.34916-0.10985-0.63385-0.3297-0.85369-0.21984-0.21985-0.49783-0.3297-0.83406-0.3297zm-0.77566 3.8215v9.4852h1.5322v-9.4852zm0.0057 13.065v13.129h1.5322v-13.129z" style="white-space:pre"/><path d="m-74.276 328.31v-9.4856h1.4936v1.1639h0.27157q0.25217-0.62073 0.77592-0.9117 0.52374-0.29096 1.3772-0.29096h1.1251v1.3966h-1.2221q-1.0281 0-1.6682 0.58194-0.62073 0.56254-0.62073 1.7652v5.7806z" style="white-space:pre"/><path d="m-66.963 328.31v-9.4856h1.5324v9.4856zm0.77592-10.96q-0.50434 0-0.85351-0.32976-0.32976-0.32976-0.32976-0.83411 0-0.52374 0.32976-0.8535 0.34916-0.32977 0.85351-0.32977 0.50434 0 0.83411 0.32977 0.32976 0.32976 0.32976 0.8535 0 0.50435-0.32976 0.83411-0.32976 0.32976-0.83411 0.32976z" style="white-space:pre"/><path d="m-62.211 328.31v-9.4856h1.4936v1.61h0.27157q0.31037-0.67893 1.0475-1.2221 0.75652-0.56254 2.2114-0.56254 1.0669 0 1.901 0.44615 0.85351 0.44615 1.3579 1.3191 0.50434 0.8729 0.50434 2.1532v5.7418h-1.5324v-5.6254q0-1.416-0.71772-2.0562-0.69832-0.64013-1.901-0.64013-1.3772 0-2.2502 0.89231-0.85351 0.8923-0.85351 2.6575v4.7719z" style="white-space:pre"/><path d="m-51.478 335.54-4.345 3.899h-1.0563v1.4547h1.0563l4.5196 4.132h2.1146l-5.4121-4.869 5.2565-4.6168z" style="white-space:pre"/></g><path d="m-42.541 316.6v3.8008h-0.27182c-0.25864-0.46555-0.65937-0.88588-1.2025-1.2609-0.53021-0.38796-1.293-0.58187-2.2887-0.58187-0.81471 0-1.5651 0.19391-2.2505 0.58187s-1.2285 0.93774-1.6294 1.649c-0.40089 0.71125-0.601 1.5648-0.601 2.5606v0.2713c0 0.98282 0.20011 1.8364 0.601 2.5606 0.40089 0.71126 0.94397 1.261 1.6294 1.649 0.68539 0.38796 1.4358 0.58188 2.2505 0.58188 0.67246 0 1.2346-0.0841 1.6872-0.25219 0.45262-0.18104 0.82137-0.40745 1.1059-0.67902 0.2845-0.27157 0.50421-0.54956 0.65939-0.83406h0.27182v4.6664c0 0.38795-0.19392 0.58188-0.58188 0.58188h-14.465v13.129h1.5322v-11.771h13.34c0.54314 0 0.95677-0.14852 1.2413-0.44596 0.2845-0.29743 0.42685-0.70487 0.42685-1.2222v-13.53h9.5405v-1.4547zm-3.3559 3.3161c0.98282 0 1.7781 0.31048 2.3859 0.93121 0.62073 0.6078 0.93121 1.4614 0.93121 2.5606v0.15503c0 1.0863-0.31048 1.9398-0.93121 2.5606-0.6078 0.62073-1.4031 0.93121-2.3859 0.93121-0.96989 0-1.7719-0.31048-2.4055-0.93121-0.62073-0.62074-0.93069-1.4743-0.93069-2.5606v-0.15503c0-1.0992 0.30996-1.9528 0.93069-2.5606 0.63366-0.62073 1.4356-0.93121 2.4055-0.93121z" fill="#acfc29" stroke-width=".48495" style="white-space:pre"/><g fill="#ffefef" stroke-width=".48495"><path d="m-131.98 347.54v10.064h1.3575v-8.707h11.167c0.55607 0 0.9764-0.14854 1.2609-0.44597 0.29744-0.29743 0.44649-0.70487 0.44649-1.2222v-11.697h-1.5327v4.7718c0 1.1768-0.29089 2.0629-0.87282 2.6577-0.58193 0.59488-1.3256 0.89245-2.2309 0.89245-0.80178 0-1.4418-0.21351-1.9203-0.64027-0.46555-0.42675-0.69815-1.106-0.69815-2.0371v-5.6446h-1.5327v5.7614c0 0.84057 0.16194 1.5518 0.48524 2.1337 0.33623 0.58194 0.78854 1.0214 1.3575 1.3188 0.58194 0.29743 1.2158 0.44648 1.9012 0.44648 0.64659 0 1.183-0.0779 1.6097-0.23306 0.42675-0.16812 0.76972-0.38163 1.0284-0.64027 0.27157-0.27157 0.4722-0.54285 0.60151-0.81442h0.27131v3.453c0 0.38795-0.19115 0.52774-0.56224 0.58188z" style="white-space:pre"/><path d="m-110.16 345.29q-1.4354 0-2.5411-0.60134-1.0863-0.60133-1.707-1.6876-0.60133-1.1057-0.60133-2.5993v-0.25218q0-1.4742 0.60133-2.5799 0.62073-1.1057 1.707-1.707 1.1057-0.60133 2.5411-0.60133 1.4354 0 2.5217 0.60133 1.1057 0.60134 1.707 1.707 0.62073 1.1057 0.62073 2.5799v0.25218q0 1.4936-0.62073 2.5993-0.60133 1.0863-1.707 1.6876-1.0863 0.60134-2.5217 0.60134zm0-1.3772q1.513 0 2.4053-0.9505 0.9117-0.96989 0.9117-2.5993v-0.17458q0-1.6294-0.9117-2.5799-0.8923-0.96989-2.4053-0.96989-1.4936 0-2.4053 0.96989-0.9117 0.9505-0.9117 2.5799v0.17458q0 1.6294 0.9117 2.5993 0.9117 0.9505 2.4053 0.9505z" style="white-space:pre"/><path d="m-74.27 345.02v-9.4856h1.5324v9.4856zm0.77591-10.96q-0.50434 0-0.85351-0.32976-0.32976-0.32977-0.32976-0.83411 0-0.52374 0.32976-0.85351 0.34916-0.32976 0.85351-0.32976 0.50434 0 0.83411 0.32976 0.32976 0.32977 0.32976 0.85351 0 0.50434-0.32976 0.83411-0.32976 0.32976-0.83411 0.32976z" style="white-space:pre"/><path d="m-69.518 345.02v-9.4856h1.4936v1.61h0.27157q0.31037-0.67892 1.0475-1.2221 0.75652-0.56254 2.2114-0.56254 1.0669 0 1.901 0.44615 0.85351 0.44615 1.3579 1.3191 0.50434 0.8729 0.50434 2.1532v5.7418h-1.5324v-5.6254q0-1.416-0.71772-2.0562-0.69832-0.64013-1.901-0.64013-1.3772 0-2.2502 0.8923-0.85351 0.89231-0.85351 2.6575v4.7719z" style="white-space:pre"/><path d="m-43.614 345.29q-1.7652 0-2.9873-0.81471-1.2027-0.81471-1.4548-2.5799l1.4548-0.32976q0.15518 0.9311 0.58194 1.4742 0.42675 0.52374 1.0475 0.75651 0.64013 0.21338 1.3579 0.21338 1.0669 0 1.6876-0.42675 0.62073-0.42676 0.62073-1.1445 0-0.73712-0.60133-1.0281-0.58194-0.31036-1.61-0.50434l-0.79531-0.13578q-0.9117-0.15519-1.6682-0.48495-0.75652-0.32977-1.2027-0.8923-0.44615-0.56254-0.44615-1.416 0-1.2803 0.98929-1.998 0.98929-0.71772 2.6187-0.71772 1.61 0 2.5993 0.73712 1.0087 0.71772 1.2997 2.0368l-1.4354 0.36855q-0.17458-1.0281-0.83411-1.4354-0.65953-0.42675-1.6294-0.42675-0.96989 0-1.5324 0.36856-0.56254 0.34916-0.56254 1.0475 0 0.67893 0.52374 1.0087 0.54314 0.31037 1.4354 0.46555l0.79531 0.13579q1.0087 0.17458 1.804 0.48494 0.81471 0.29097 1.2803 0.85351 0.48495 0.56254 0.48495 1.4742 0 1.3966-1.0475 2.1532-1.0281 0.75652-2.7739 0.75652z" style="white-space:pre"/></g><path d="m-65.124 343.46v7.1284h44.213" fill="none" stroke="#acfc29" stroke-width="1.358"/><path d="m-107.12 331.88h-28.926v-5.3417h-12.227" fill="none" stroke="#acfc29" stroke-width="1.358"/></g></g></svg>
